{"accessors" : [{"bufferView" : 0, "byteOffset" : 0, "componentType" : 5123, "count" : 375, "type" : "SCALAR", "max" : [374], "min" : [0]}, {"bufferView" : 1, "byteOffset" : 0, "componentType" : 5126, "count" : 375, "type" : "VEC3", "max" : [41.216400146484375, 29.677799224853516, 1.7351000308990479], "min" : [-23.005399703979492, 0, -9.394700050354004], "name" : "POSITION"}, {"bufferView" : 1, "byteOffset" : 12, "componentType" : 5126, "count" : 375, "type" : "VEC3", "max" : [1.0000044107437134, 1.0000044107437134, 1.0000044107437134], "min" : [-1.0000044107437134, -1.0000044107437134, -1.0000044107437134], "name" : "NORMAL"}, {"bufferView" : 1, "byteOffset" : 24, "componentType" : 5126, "count" : 375, "type" : "VEC2", "max" : [1, 1], "min" : [-0.10000000149011612, 0], "name" : "TEXCOORD_0"}, {"bufferView" : 0, "byteOffset" : 752, "componentType" : 5123, "count" : 48, "type" : "SCALAR", "max" : [47], "min" : [0]}, {"bufferView" : 2, "byteOffset" : 0, "componentType" : 5126, "count" : 48, "type" : "VEC3", "max" : [27.893400192260742, 13.88479995727539, 5.629300117492676], "min" : [-23.005399703979492, 0, -0.3937000036239624], "name" : "POSITION"}, {"bufferView" : 2, "byteOffset" : 12, "componentType" : 5126, "count" : 48, "type" : "VEC3", "max" : [0.9991594552993774, 0.9999938011169434, 1.0000044107437134], "min" : [-0.9991594552993774, -1.0000044107437134, -0.04109833389520645], "name" : "NORMAL"}, {"bufferView" : 2, "byteOffset" : 24, "componentType" : 5126, "count" : 48, "type" : "VEC2", "max" : [1, 1], "min" : [0, 0], "name" : "TEXCOORD_0"}, {"bufferView" : 0, "byteOffset" : 848, "componentType" : 5123, "count" : 18, "type" : "SCALAR", "max" : [17], "min" : [0]}, {"bufferView" : 3, "byteOffset" : 0, "componentType" : 5126, "count" : 18, "type" : "VEC3", "max" : [27.893400192260742, 13.88479995727539, 0.9891999959945679], "min" : [19.300100326538086, 3.11299991607666, -8.595600128173828], "name" : "POSITION"}, {"bufferView" : 3, "byteOffset" : 12, "componentType" : 5126, "count" : 18, "type" : "VEC3", "max" : [0.7817301154136658, -0.6236239671707153, -0], "min" : [0.7817301154136658, -0.6236239671707153, -0], "name" : "NORMAL"}, {"bufferView" : 3, "byteOffset" : 24, "componentType" : 5126, "count" : 18, "type" : "VEC2", "max" : [1, 1], "min" : [0, 0], "name" : "TEXCOORD_0"}, {"bufferView" : 0, "byteOffset" : 884, "componentType" : 5123, "count" : 48, "type" : "SCALAR", "max" : [47], "min" : [0]}, {"bufferView" : 4, "byteOffset" : 0, "componentType" : 5126, "count" : 48, "type" : "VEC3", "max" : [27.893400192260742, 13.88479995727539, -7.212699890136719], "min" : [-23.005399703979492, 0, -13.235699653625488], "name" : "POSITION"}, {"bufferView" : 4, "byteOffset" : 12, "componentType" : 5126, "count" : 48, "type" : "VEC3", "max" : [0.9991594552993774, 0.9999938011169434, 0.04109833389520645], "min" : [-0.9991594552993774, -1.0000044107437134, -1.0000044107437134], "name" : "NORMAL"}, {"bufferView" : 4, "byteOffset" : 24, "componentType" : 5126, "count" : 48, "type" : "VEC2", "max" : [1, 1], "min" : [0, 0], "name" : "TEXCOORD_0"}, {"bufferView" : 0, "byteOffset" : 980, "componentType" : 5123, "count" : 72, "type" : "SCALAR", "max" : [70], "min" : [0]}, {"bufferView" : 5, "byteOffset" : 0, "componentType" : 5126, "count" : 71, "type" : "VEC3", "max" : [19.300100326538086, 4.308300018310547, 5.629300117492676], "min" : [-23.005399703979492, 0, -13.235699653625488], "name" : "POSITION"}, {"bufferView" : 5, "byteOffset" : 12, "componentType" : 5126, "count" : 71, "type" : "VEC3", "max" : [0.7963891625404358, -0.6047918200492859, 0], "min" : [-0.4706993103027344, -0.9999938011169434, 0], "name" : "NORMAL"}, {"bufferView" : 5, "byteOffset" : 24, "componentType" : 5126, "count" : 71, "type" : "VEC2", "max" : [1, 1], "min" : [0, 0], "name" : "TEXCOORD_0"}, {"bufferView" : 0, "byteOffset" : 1124, "componentType" : 5123, "count" : 270, "type" : "SCALAR", "max" : [269], "min" : [0]}, {"bufferView" : 6, "byteOffset" : 0, "componentType" : 5126, "count" : 270, "type" : "VEC3", "max" : [41.216400146484375, 23.546499252319336, 5.629300117492676], "min" : [-23.005399703979492, 10.775400161743164, -13.235699653625488], "name" : "POSITION"}, {"bufferView" : 6, "byteOffset" : 12, "componentType" : 5126, "count" : 270, "type" : "VEC3", "max" : [1.0000044107437134, 1.0000044107437134, 0.9994955062866211], "min" : [-0.7927092909812927, -0.9394115805625916, -0.9996278285980225], "name" : "NORMAL"}, {"bufferView" : 6, "byteOffset" : 24, "componentType" : 5126, "count" : 270, "type" : "VEC2", "max" : [1, 1], "min" : [0, 0], "name" : "TEXCOORD_0"}, {"bufferView" : 0, "byteOffset" : 1664, "componentType" : 5123, "count" : 42, "type" : "SCALAR", "max" : [41], "min" : [0]}, {"bufferView" : 7, "byteOffset" : 0, "componentType" : 5126, "count" : 42, "type" : "VEC3", "max" : [20.058799743652344, 19.783000946044922, 5.229100227355957], "min" : [-14.037799835205078, 11.351499557495117, -12.83549976348877], "name" : "POSITION"}, {"bufferView" : 7, "byteOffset" : 12, "componentType" : 5126, "count" : 42, "type" : "VEC3", "max" : [0.0728028267621994, 0.6096071004867554, 0.9990481734275818], "min" : [-0.7927092909812927, -0.03490118309855461, -0.9990481734275818], "name" : "NORMAL"}, {"bufferView" : 7, "byteOffset" : 24, "componentType" : 5126, "count" : 42, "type" : "VEC2", "max" : [0.9825000166893005, 1], "min" : [0.5, 0], "name" : "TEXCOORD_0"}, {"bufferView" : 0, "byteOffset" : 1748, "componentType" : 5123, "count" : 5631, "type" : "SCALAR", "max" : [4949], "min" : [0]}, {"bufferView" : 8, "byteOffset" : 0, "componentType" : 5126, "count" : 4950, "type" : "VEC3", "max" : [44.556400299072266, 29.31439971923828, 17.351600646972656], "min" : [-18.697799682617188, 0.08219999819993973, -25.274599075317383], "name" : "POSITION"}, {"bufferView" : 8, "byteOffset" : 12, "componentType" : 5126, "count" : 4950, "type" : "VEC3", "max" : [1.0000044107437134, 1.0000044107437134, 1.0000044107437134], "min" : [-1.0000044107437134, -1.0000044107437134, -1.0000044107437134], "name" : "NORMAL"}, {"bufferView" : 8, "byteOffset" : 24, "componentType" : 5126, "count" : 4950, "type" : "VEC2", "max" : [1.0499999523162842, 1], "min" : [-0.20000000298023224, 0], "name" : "TEXCOORD_0"}, {"bufferView" : 0, "byteOffset" : 13012, "componentType" : 5123, "count" : 12, "type" : "SCALAR", "max" : [11], "min" : [0]}, {"bufferView" : 9, "byteOffset" : 0, "componentType" : 5126, "count" : 12, "type" : "VEC3", "max" : [-23.005399703979492, 10.775400161743164, 5.629300117492676], "min" : [-23.005399703979492, 4.308300018310547, -13.235699653625488], "name" : "POSITION"}, {"bufferView" : 9, "byteOffset" : 12, "componentType" : 5126, "count" : 12, "type" : "VEC3", "max" : [-1.0000044107437134, 0, -0], "min" : [-1.0000044107437134, 0, -0], "name" : "NORMAL"}, {"bufferView" : 9, "byteOffset" : 24, "componentType" : 5126, "count" : 12, "type" : "VEC2", "max" : [1, 1], "min" : [0, 0], "name" : "TEXCOORD_0"}, {"bufferView" : 0, "byteOffset" : 13036, "componentType" : 5123, "count" : 600, "type" : "SCALAR", "max" : [598], "min" : [0]}, {"bufferView" : 10, "byteOffset" : 0, "componentType" : 5126, "count" : 599, "type" : "VEC3", "max" : [15.76729965209961, 0.11490000039339066, 7.8491997718811035], "min" : [-13.452400207519531, -4.5808000564575195, -15.261699676513672], "name" : "POSITION"}, {"bufferView" : 10, "byteOffset" : 12, "componentType" : 5126, "count" : 599, "type" : "VEC3", "max" : [1.0000044107437134, 1.0000044107437134, 1.0000044107437134], "min" : [-1.0000044107437134, -1.0000044107437134, -1.0000044107437134], "name" : "NORMAL"}, {"bufferView" : 10, "byteOffset" : 24, "componentType" : 5126, "count" : 599, "type" : "VEC2", "max" : [6.637499809265137, 3.127700090408325], "min" : [-2.9948999881744385, -2.6689000129699707], "name" : "TEXCOORD_0"}], "asset" : {"generator" : "Aspose.3D 23.7.0", "version" : "2.0"}, "buffers" : [{"uri" : "data:application/octet-stream;base64,", "byteLength" : 241992}], "bufferViews" : [{"buffer" : 0, "byteOffset" : 0, "byteLength" : 14236, "target" : 34963}, {"buffer" : 0, "byteOffset" : 14240, "byteLength" : 12000, "byteStride" : 32, "target" : 34962}, {"buffer" : 0, "byteOffset" : 26244, "byteLength" : 1536, "byteStride" : 32, "target" : 34962}, {"buffer" : 0, "byteOffset" : 27784, "byteLength" : 576, "byteStride" : 32, "target" : 34962}, {"buffer" : 0, "byteOffset" : 28364, "byteLength" : 1536, "byteStride" : 32, "target" : 34962}, {"buffer" : 0, "byteOffset" : 29904, "byteLength" : 2304, "byteStride" : 32, "target" : 34962}, {"buffer" : 0, "byteOffset" : 32212, "byteLength" : 8640, "byteStride" : 32, "target" : 34962}, {"buffer" : 0, "byteOffset" : 40856, "byteLength" : 1344, "byteStride" : 32, "target" : 34962}, {"buffer" : 0, "byteOffset" : 42204, "byteLength" : 180192, "byteStride" : 32, "target" : 34962}, {"buffer" : 0, "byteOffset" : 222400, "byteLength" : 384, "byteStride" : 32, "target" : 34962}, {"buffer" : 0, "byteOffset" : 222788, "byteLength" : 19200, "byteStride" : 32, "target" : 34962}], "materials" : [{"name" : "07___Default", "pbrMetallicRoughness" : {"baseColorFactor" : [0.0353, 0.1569, 0.3059, 1], "metallicFactor" : 0, "roughnessFactor" : 0.99}, "emissiveFactor" : [0, 0, 0], "alphaMode" : "OPAQUE", "doubleSided" : false}, {"name" : "Material__199", "pbrMetallicRoughness" : {"baseColorFactor" : [0.588, 0.588, 0.588, 1], "metallicFactor" : 0, "roughnessFactor" : 0.99}, "emissiveFactor" : [0, 0, 0], "alphaMode" : "OPAQUE", "doubleSided" : false}, {"name" : "Material__198", "pbrMetallicRoughness" : {"baseColorFactor" : [0.588, 0.588, 0.588, 1], "metallicFactor" : 0, "roughnessFactor" : 0.99}, "emissiveFactor" : [0, 0, 0], "alphaMode" : "OPAQUE", "doubleSided" : false}, {"name" : "Material__200", "pbrMetallicRoughness" : {"baseColorFactor" : [0.588, 0.588, 0.588, 1], "metallicFactor" : 0, "roughnessFactor" : 0.99}, "emissiveFactor" : [0, 0, 0], "alphaMode" : "OPAQUE", "doubleSided" : false}, {"name" : "Material__196", "pbrMetallicRoughness" : {"baseColorFactor" : [0.588, 0.588, 0.588, 1], "metallicFactor" : 0, "roughnessFactor" : 0.99}, "emissiveFactor" : [0, 0, 0], "alphaMode" : "OPAQUE", "doubleSided" : false}, {"name" : "Material__195", "pbrMetallicRoughness" : {"baseColorFactor" : [0.588, 0.588, 0.588, 1], "metallicFactor" : 0, "roughnessFactor" : 0.99}, "emissiveFactor" : [0, 0, 0], "alphaMode" : "OPAQUE", "doubleSided" : false}, {"name" : "02___Default", "pbrMetallicRoughness" : {"baseColorFactor" : [0.3804, 0.7412, 0.7961, 1], "metallicFactor" : 0, "roughnessFactor" : 0.99}, "emissiveFactor" : [0, 0, 0], "alphaMode" : "OPAQUE", "doubleSided" : false}, {"name" : "19___Default", "pbrMetallicRoughness" : {"baseColorFactor" : [0.0078, 0.0078, 0.0078, 1], "metallicFactor" : 0, "roughnessFactor" : 0.99}, "emissiveFactor" : [0, 0, 0], "alphaMode" : "OPAQUE", "doubleSided" : false}, {"name" : "Material__197", "pbrMetallicRoughness" : {"baseColorFactor" : [0.588, 0.588, 0.588, 1], "metallicFactor" : 0, "roughnessFactor" : 0.99}, "emissiveFactor" : [0, 0, 0], "alphaMode" : "OPAQUE", "doubleSided" : false}, {"name" : "13___Default", "pbrMetallicRoughness" : {"baseColorFactor" : [0.0706, 0.0706, 0.0706, 1], "metallicFactor" : 0, "roughnessFactor" : 0.99}, "emissiveFactor" : [0, 0, 0], "alphaMode" : "OPAQUE", "doubleSided" : false}], "meshes" : [{"primitives" : [{"attributes" : {"POSITION" : 1, "NORMAL" : 2, "TEXCOORD_0" : 3}, "indices" : 0, "material" : 0, "mode" : 4}, {"attributes" : {"POSITION" : 5, "NORMAL" : 6, "TEXCOORD_0" : 7}, "indices" : 4, "material" : 1, "mode" : 4}, {"attributes" : {"POSITION" : 9, "NORMAL" : 10, "TEXCOORD_0" : 11}, "indices" : 8, "material" : 2, "mode" : 4}, {"attributes" : {"POSITION" : 13, "NORMAL" : 14, "TEXCOORD_0" : 15}, "indices" : 12, "material" : 3, "mode" : 4}, {"attributes" : {"POSITION" : 17, "NORMAL" : 18, "TEXCOORD_0" : 19}, "indices" : 16, "material" : 4, "mode" : 4}, {"attributes" : {"POSITION" : 21, "NORMAL" : 22, "TEXCOORD_0" : 23}, "indices" : 20, "material" : 5, "mode" : 4}, {"attributes" : {"POSITION" : 25, "NORMAL" : 26, "TEXCOORD_0" : 27}, "indices" : 24, "material" : 6, "mode" : 4}, {"attributes" : {"POSITION" : 29, "NORMAL" : 30, "TEXCOORD_0" : 31}, "indices" : 28, "material" : 7, "mode" : 4}, {"attributes" : {"POSITION" : 33, "NORMAL" : 34, "TEXCOORD_0" : 35}, "indices" : 32, "material" : 8, "mode" : 4}, {"attributes" : {"POSITION" : 37, "NORMAL" : 38, "TEXCOORD_0" : 39}, "indices" : 36, "material" : 9, "mode" : 4}]}], "nodes" : [{"mesh" : 0, "name" : "Box001"}], "scene" : 0, "scenes" : [{"nodes" : [0]}]}